<?xml version="1.0" encoding="UTF-8" standalone="no"?>
<!-- Created with Inkscape (http://www.inkscape.org/) -->

<svg
   width="256"
   height="256"
   viewBox="0 0 67.733332 67.733333"
   version="1.1"
   id="svg5"
   inkscape:version="1.2 (dc2aedaf03, 2022-05-15)"
   sodipodi:docname="Rma y.svg"
   xmlns:inkscape="http://www.inkscape.org/namespaces/inkscape"
   xmlns:sodipodi="http://sodipodi.sourceforge.net/DTD/sodipodi-0.dtd"
   xmlns="http://www.w3.org/2000/svg"
   xmlns:svg="http://www.w3.org/2000/svg">
  <sodipodi:namedview
     id="namedview7"
     pagecolor="#ffffff"
     bordercolor="#666666"
     borderopacity="1.0"
     inkscape:showpageshadow="2"
     inkscape:pageopacity="0.0"
     inkscape:pagecheckerboard="0"
     inkscape:deskcolor="#d1d1d1"
     inkscape:document-units="mm"
     showgrid="false"
     inkscape:zoom="1.0543273"
     inkscape:cx="134.2088"
     inkscape:cy="148.91012"
     inkscape:window-width="1366"
     inkscape:window-height="705"
     inkscape:window-x="-8"
     inkscape:window-y="-8"
     inkscape:window-maximized="1"
     inkscape:current-layer="svg5" />
  <defs
     id="defs2">
    <rect
       x="-28.454163"
       y="-19.917914"
       width="401.20369"
       height="363.26481"
       id="rect3998" />
    <rect
       x="0"
       y="5.0996016"
       width="444.32544"
       height="346.58496"
       id="rect1496" />
  </defs>
  <g
     aria-label="਎"
     transform="matrix(0.26458333,0,0,0.26458333,-23.980032,-22.039629)"
     id="text1494"
     style="font-size:192px;line-height:327.272px;font-family:ApSiddham;-inkscape-font-specification:'ApSiddham, Normal';text-align:center;letter-spacing:0px;word-spacing:0px;text-anchor:middle;white-space:pre;shape-inside:url(#rect1496);display:inline">
    <path
       d="m 274.67515,160.63411 -9.408,58.56 h -15.744 l 7.68,-46.464 h -53.376 q -0.96,14.784 -3.84,31.872 -2.88,17.088 -7.296,33.408 -1.152,4.416 -3.84,9.024 -2.496,4.608 -5.376,8.448 -2.88,4.032 -5.568,7.104 -2.688,3.264 -4.224,4.8 l -12.672,-8.256 q 1.152,-1.152 3.648,-3.648 2.688,-2.304 5.376,-5.568 2.88,-3.072 5.184,-6.912 2.496,-3.84 3.456,-7.68 4.032,-16.32 6.912,-32.256 3.072,-15.936 3.84,-30.336 h -4.992 l 0.768,-12.096 z"
       style="font-family:v-kana;-inkscape-font-specification:v-kana"
       id="path4716" />
  </g>
</svg>
